<svg viewBox="0 0 2998 703" xmlns="http://www.w3.org/2000/svg"><path d="m2579 144.1c-44.8 3.5-79.3 13.8-105.5 31.2-38.8 25.9-60.6 60.5-70.5 111.8-3 15.6-4 27.9-4 50.9 0 30.6 2.5 52.1 9.1 76.3 8.4 30.9 19.9 51.6 40.4 72.3 32.2 32.6 73.4 47.6 143.6 52.3 20.5 1.4 80.5 1.4 98.9 0 65.2-4.9 110.7-23.8 141.8-59 21.7-24.5 34.3-55.9 40.4-100.5 2.9-21 3.1-54 .4-72-4.3-28.9-10.5-51.1-19.7-70.4-19.3-40.4-54.1-68.7-102.1-83-29.7-8.8-55.2-11.2-118.7-11-24 0-48.4.5-54.1 1m-773 4-44.5.5v192.2c0 105.7.3 192.4.6 192.7s23 .6 50.5.7l50 .2.3-193.1c.2-154.2 0-193.1-1-193.2-.7 0-3.5-.2-6.3-.3s-25 0-49.5.3m-1610.1.7v44.3c0 32.9.4 43.7 1.3 44.2.7.4 57 .8 125.2.8 132.5 0 133.1 0 151.2 5 28 7.7 46.6 27.4 54.8 58 5.6 20.8 5.6 55 0 79.7-8.2 36.7-30.5 57-68.9 62.7-8.6 1.3-24.3 1.7-81.9 2.1-39.2.3-74.1.3-77.5 0l-6.2-.7v-144.8h-201.1l2 2.8c1.1 1.5 8.8 10.5 17.1 20l15.1 17.2h69.9l.2 10.5c.1 5.8.2 11.7.2 13.2v2.8s-16.6.5-16.6.5l-16.7.5 15.9 22 15.9 21.9v122.3l47.2.6c26 .4 87.1.4 135.8.2 95.2-.5 99.9-.8 125-6.1 42.7-9.1 78-32 99.5-64.4 27.5-41.4 37.6-113.7 24.9-179-4.9-25.1-14.2-48.6-26.7-67.3-7.5-11.2-26.2-30.2-36.7-37.2-23.6-15.8-55.3-26.6-90-30.7-11.2-1.3-279-2.4-279-1.1m628.4-0c-3.8.5-4.9 2.2-21.8 34.3-5.9 11.3-15 28.6-20.3 38.5-5.2 9.9-11.4 21.6-13.7 26s-11 20.8-19.3 36.5-24 45.6-35 66.5-31.4 59.6-45.4 86-29.2 55.2-33.8 64-10.3 19.6-12.7 24.1c-2.4 4.4-4.4 8.4-4.4 8.8s25.1.7 55.8.7h55.8l20.2-40.2c11.1-22.1 25.7-50.8 32.5-63.8 20.2-38.4 25.6-48.8 44.2-85.5 9.8-19.2 24-46.7 31.5-61s15.3-29.6 17.4-33.9c2-4.3 3.8-7.7 4.1-7.5.5.5 8.1 15.4 33.6 65.4 33.6 65.9 38.3 75.4 37.7 76-.3.3-23 .7-50.4.8l-49.9.2-21.1 42.5-21.1 42.5 94.7.3 94.7.3 6.8 13.7c17 34.4 24.6 49.8 25 50.2s110.6.2 111.1-.2c.4-.4-24.7-49.8-36.2-71.2-15.8-29.5-17.5-32.6-19.5-36-2.3-3.9-13.9-25.6-22.2-41.5-13.3-25.3-36.7-69.9-44.6-84.8-4.5-8.4-11.6-22.1-15.8-30.5s-12.4-24-18.1-34.7-12.3-23.1-14.7-27.5-8.6-16.3-13.9-26.4c-13.8-26.3-17.1-31.8-19.8-32.5-2.5-.7-106.2-.6-111.5 0m344.9 138.9c0 76.9.4 163.8.8 193.2l.6 53.5 6.5.3c3.6.2 25.1 0 47.9-.4l41.4-.7-.5-125.1-.5-125.1 2.1 2.6c1.2 1.5 8.8 14.9 17 29.9s17.9 32.7 21.6 39.3 11.9 21.7 18.2 33.5 16.1 30 21.7 40.5 15.4 28.7 21.8 40.5c23 42.8 32.8 60.5 34.7 62.6 2 2.2 2.1 2.2 38.6 1.6l36.6-.5 3.7-7.1c2-3.9 6.9-13 10.8-20.1s13-24.5 20.2-38.5 17.5-33.8 23-44 18.7-34.9 29.4-55 23-42.8 27.3-50.5 9.9-18.2 12.5-23.2c2.6-5.1 5.4-9.8 6.1-10.4 1.1-1 1.4 18.5 1.4 124s.2 125.1 1.3 125.1 22.2 0 47.8.1h46.4c0 .1.3-193 .3-193l.3-193.1h-59c-56.4 0-59.3 0-64.7 2-8.1 2.8-12.1 7.4-20.1 22.4-3.8 7.2-14 26.6-22.7 43.1-24.1 45.9-52.3 99.1-68 128.5-7.8 14.6-18.4 34.5-23.6 44.2s-9.9 17.6-10.4 17.4c-.6-.2-2.1-2.3-3.4-4.7s-4.9-8.9-7.9-14.4c-5-9-9.9-18-32.2-59.5-3.7-6.9-9.3-17.1-12.4-22.8s-5.6-10.4-5.6-10.6-1.9-3.9-4.3-8.2-7.4-13.7-11.2-20.9c-12.2-23.2-24.1-45.6-33.7-63.5-5.2-9.6-12.3-23-15.8-29.8-4.3-8.4-7.7-13.5-10.6-16.2-7.7-7.1-7.3-7.1-74.1-7.1h-59.3v139.8m923.6-137.7c-1.9 2.1-15.2 26.8-39.2 72.8-9.8 18.7-20.8 39.6-24.5 46.5s-12.3 23.1-19 36c-12.3 23.5-46.4 88.2-52.5 99.5-12.3 22.8-37.2 70-53 100.5-7.6 14.6-14.2 27.1-14.8 27.8-.7.9-.6 1.3.4 1.3h110.1c1.3 0 5.9-8.4 18-32.8 14.6-29.4 42.5-83.8 49.7-96.8 1.5-2.8 12.5-24.1 24.4-47.5s26.6-52 32.7-63.5 14.3-27.6 18.3-35.7 7.5-14.7 7.9-14.7 7.7 13.8 16.4 30.7c50 98 55.4 108.8 55.4 109.6s-22.6.7-50.2.9l-50.2.3-21.3 42.5-21.3 42.5 94.8.3 94.8.3 15.9 32.2 15.9 32.2h55.8c30.7 0 55.8-.3 55.8-.7 0-1.7-38.7-76.1-50.2-96.6-1-1.8-9.7-18-19.2-36-15.3-28.8-27.4-51.8-58.1-110.2-4.5-8.5-13.2-25.4-19.5-37.5-6.2-12.1-13.4-25.8-16-30.5s-9.8-18.2-16-30-14.2-26.8-17.7-33.2l-6.4-11.8h-57.8c-53.8 0-57.9.1-59.3 1.8m500.7 85.2c-22.2 1.2-36.8 4.5-50.7 11.6-23.3 11.9-38.7 35.6-43.3 66.8-2.8 18.8-1.2 51 3.4 69.5 1.2 4.7 4.6 13.6 7.6 19.8 4.8 9.9 6.5 12.3 13.8 19.5 9.7 9.6 19.1 15.3 32.5 19.6 14.8 4.8 23.6 5.5 76.6 5.5 64 0 77.2-1.5 96.1-11 32.1-16.1 45.6-44.6 45.6-96.5 0-25.8-3.3-43.1-11.3-59.3-14.5-29.2-39.1-42.7-83.2-45.7-16.1-1.1-66.1-1.1-87.3 0m-2499.3 132.7c0 .8 30.8 41.2 31.9 41.8.5.3 9 .3 18.9 0l18-.6-8.9-12.1c-4.9-6.7-11.7-16-15.1-20.8l-6.2-8.8h-19.3c-10.6 0-19.3.3-19.3.6" fill="#040404" fill-rule="evenodd"/></svg>